<svg xmlns="http://www.w3.org/2000/svg" viewBox="0 0 21 21">
  <defs>
    <style>
      .cls-1 {
        fill: #fff;
        stroke: #fff;
      }
    </style>
  </defs>
  <path id="if_00-ELASTOFONT-STORE-READY_bag_2703085" class="cls-1" d="M21.257,6.113a.67.67,0,0,0-.7-.586H16.868V4.55C16.868,2.593,14.8,1,12.25,1S7.631,2.593,7.631,4.55v.977H3.939a.67.67,0,0,0-.7.586L2.251,20.336a.59.59,0,0,0,.188.467.74.74,0,0,0,.509.2h18.6a.74.74,0,0,0,.509-.2.59.59,0,0,0,.188-.467ZM9.027,4.55c0-1.268,1.446-2.3,3.223-2.3s3.223,1.032,3.223,2.3v.977H9.027Zm-1.4,2.227V8.135a.7.7,0,0,0,1.4,0V6.777h6.446V8.135a.7.7,0,0,0,1.4,0V6.777H19.9l.6,8.667H3.99l.6-8.667ZM3.69,19.75l.242-3.472H20.567l.242,3.472Z" transform="translate(-1.75 -0.5)"/>
</svg>
