<?xml version="1.0" encoding="utf-8"?>
<!-- Generator: Adobe Illustrator 19.0.0, SVG Export Plug-In . SVG Version: 6.00 Build 0)  -->
<svg version="1.1" id="Layer_1" xmlns="http://www.w3.org/2000/svg" xmlns:xlink="http://www.w3.org/1999/xlink" x="0px" y="0px"
	 viewBox="-395 592.3 50 8.2" style="enable-background:new -395 592.3 50 8.2;" xml:space="preserve">
<style type="text/css">
	.st0{fill:#F7F7F7;}
</style>
<g id="XMLID_1_">
	<path id="XMLID_32_" class="st0" d="M-395,595.1v3.1h3.1v1h-3.1v1.3h3.8c0.4,0,0.7-0.3,0.7-0.7v-3.1h-3.1v-1h3.1v-1.4h-3.8
		C-394.7,594.3-395,594.6-395,595.1z"/>
	<path id="XMLID_13_" class="st0" d="M-352.2,594.3h-3c-0.4,0-0.7,0.3-0.7,0.7v5.5h1.5v-1.9h1.5v1.9h1.5v-5.4
		C-351.5,594.6-351.8,594.3-352.2,594.3z M-352.8,595.8v1.5h-1.7v-1.5H-352.8z"/>
	<polygon id="XMLID_12_" class="st0" points="-376.7,594.3 -378.1,594.3 -378.1,600.5 -373.6,600.5 -373.6,599.1 -376.7,599.1 	"/>
	<polygon id="XMLID_11_" class="st0" points="-371.3,594.3 -372.6,594.3 -372.6,600.5 -368.2,600.5 -368.2,599.1 -371.3,599.1 	"/>
	<path id="XMLID_26_" class="st0" d="M-389.4,595.1v4.7c0,0.4,0.3,0.7,0.7,0.7h3.8v-1.4h-3.1v-1h3.1v-1.4h-3.1v-1h3.1v-1.4h-3.8
		C-389.1,594.3-389.4,594.6-389.4,595.1z"/>
	<path id="XMLID_10_" class="st0" d="M-367.2,595.1v4.7c0,0.4,0.3,0.7,0.7,0.7h3.8v-1.4h-3.1v-1h3.1v-1.4h-3.1v-1h3.1v-1.4h-3.8
		C-366.9,594.3-367.2,594.6-367.2,595.1z"/>
	<path id="XMLID_9_" class="st0" d="M-345.7,594.3h-3.8c-0.4,0-0.7,0.3-0.7,0.7v5.5h1.5v-4.8h0.5v4.8h1.4v-4.8h0.5v4.8h1.3v-5.4
		C-345,594.6-345.3,594.3-345.7,594.3z"/>
	<path id="XMLID_6_" class="st0" d="M-380.2,594.3h-2.7c-0.5,0-0.9,0.4-0.9,0.9v4.4c0,0.5,0.4,0.9,0.9,0.9h2.7
		c0.5,0,0.9-0.4,0.9-0.9v-4.4C-379.3,594.8-379.7,594.3-380.2,594.3z M-380.7,595.8v3.4h-1.7v-3.4H-380.7z"/>
	<path id="XMLID_2_" class="st0" d="M-357.8,594.3h-3.8v6.2h3.8c0.4,0,0.7-0.3,0.7-0.7v-4.7C-357.1,594.6-357.4,594.3-357.8,594.3z
		 M-358.5,598.1v1h-1.7v-1H-358.5z M-358.5,595.8v1h-1.7v-1H-358.5z"/>
	<rect id="XMLID_16_" x="-389.4" y="592.3" class="st0" width="4.5" height="0.6"/>
</g>
</svg>
