<?xml version="1.0" encoding="utf-8"?>
<!-- Generator: Adobe Illustrator 16.0.0, SVG Export Plug-In . SVG Version: 6.00 Build 0)  -->
<!DOCTYPE svg PUBLIC "-//W3C//DTD SVG 1.1//EN" "http://www.w3.org/Graphics/SVG/1.1/DTD/svg11.dtd">
<svg version="1.1" id="Layer_1" xmlns="http://www.w3.org/2000/svg" xmlns:xlink="http://www.w3.org/1999/xlink" x="0px" y="0px"
	 width="50px" height="50px" viewBox="0 0 50 50" enable-background="new 0 0 50 50" xml:space="preserve">
<title>입욕제</title>
<desc>Created with Sketch.</desc>
<g id="Page-1">
	<g id="입욕제">
		<g transform="translate(15.000000, 15.000000)">
			<circle id="Oval" fill="none" stroke="#333333" stroke-width="1" cx="10" cy="10" r="21"/>
			<path id="Path" fill="none" stroke="#333333" stroke-width="1" d="M12.513,2.707c-1.11-0.643-1.494-2.063-0.852-3.171
				c0.642-1.109,2.059-1.489,3.168-0.847c1.109,0.638,1.493,2.058,0.852,3.169C15.04,2.966,13.625,3.346,12.513,2.707z
				 M19.404,6.686c-1.109-0.643-1.493-2.063-0.853-3.172c0.644-1.111,2.06-1.49,3.169-0.847c1.11,0.639,1.494,2.062,0.851,3.17
				C21.933,6.945,20.516,7.324,19.404,6.686z M12.645,10.437c-1.108-0.64-1.492-2.058-0.855-3.168
				c0.646-1.111,2.063-1.493,3.173-0.852c1.109,0.642,1.493,2.061,0.849,3.17C15.172,10.699,13.753,11.082,12.645,10.437z"/>
		</g>
	</g>
</g>
</svg>
