<?xml version="1.0" encoding="utf-8"?>
<!-- Generator: Adobe Illustrator 16.0.0, SVG Export Plug-In . SVG Version: 6.00 Build 0)  -->
<!DOCTYPE svg PUBLIC "-//W3C//DTD SVG 1.1//EN" "http://www.w3.org/Graphics/SVG/1.1/DTD/svg11.dtd">
<svg version="1.1" id="Layer_1" xmlns="http://www.w3.org/2000/svg" xmlns:xlink="http://www.w3.org/1999/xlink" x="0px" y="0px"
	 width="50px" height="50px" viewBox="0 0 50 50" enable-background="new 0 0 50 50" xml:space="preserve">
<title>Group 12</title>
<desc>Created with Sketch.</desc>
<g id="Welcome">
	<g id="Group-5" transform="translate(24.000000, 10.000000)">
		<path id="Shape" fill="#333333" stroke="#FFFFFF" stroke-width="0.5" d="M-7.584,37.902H9.579c1.748,0,3.171-1.562,3.171-3.479
			v-21.75c0-1.918-1.423-3.483-3.171-3.483H-7.584c-1.745,0-3.166,1.564-3.166,3.483v21.75C-10.75,36.342-9.329,37.902-7.584,37.902
			z M9.577,36.163H-7.584c-0.872,0-1.581-0.787-1.581-1.741V23.545c0-0.01,0-0.704,0.211-1.365c0.319-0.994,0.812-0.994,1.017-0.994
			c0.452,0.153,1.059,2.506,1.355,3.633c0.675,2.63,1.32,5.104,3.021,5.104c1.672,0,2.177-2.32,2.706-4.775
			c0.346-1.59,0.87-3.996,1.584-3.996c0.628,0,0.992,2.213,1.233,3.672c0.394,2.396,0.843,5.103,2.792,5.103
			c1.861,0,2.482-2.45,3.078-4.823c0.434-1.723,0.98-3.871,1.84-3.897h0.021c1.146,0,1.435,2.562,1.467,2.819v10.399
			C11.166,35.376,10.445,36.163,9.577,36.163z M-7.584,10.933H9.579c0.866,0,1.587,0.782,1.587,1.741v7.336
			c-0.396-0.339-0.881-0.545-1.456-0.545c-0.026,0-0.044,0-0.071,0.002c-2.031,0.055-2.716,2.772-3.32,5.166
			c-0.385,1.504-0.899,3.553-1.557,3.553c-0.627,0-0.988-2.207-1.232-3.672c-0.401-2.388-0.85-5.103-2.792-5.103
			c-1.968,0-2.556,2.715-3.123,5.33c-0.204,0.942-0.749,3.442-1.17,3.442c-0.507,0-1.199-2.692-1.5-3.839
			c-0.648-2.522-1.267-4.903-2.873-4.903c-0.45,0-0.868,0.135-1.233,0.357v-7.128C-9.165,11.715-8.456,10.933-7.584,10.933z"/>
		<path id="Shape_1_" fill="#333333" stroke="#FFFFFF" stroke-width="0.5" d="M-0.266,6.604c-0.398,0.193-0.576,0.678-0.391,1.087
			c0.141,0.304,0.432,0.484,0.738,0.484c0.109,0,0.228-0.024,0.334-0.08c0.51-0.234,1.431-0.965,1.666-2.191
			C2.366,4.467,1.666,2.823,0,1.005c-0.306-0.334-0.821-0.35-1.145-0.039c-0.322,0.313-0.338,0.835-0.037,1.167
			c1.594,1.739,1.797,2.824,1.686,3.432C0.375,6.266-0.224,6.584-0.266,6.604z"/>
		<path id="Shape_2_" fill="#333333" stroke="#FFFFFF" stroke-width="0.5" d="M-2.535,6.289c0.063,0.02,0.135,0.026,0.202,0.026
			c0.355,0,0.681-0.24,0.776-0.612c0.116-0.438-0.138-0.89-0.566-1.008C-2.226,4.664-4.635,3.952-4.635,0.88
			c0-2.658,1.412-5.161,2.063-6.172c1.904,0.708,5.589,2.507,6.496,4.899C4.297,0.59,4.182,1.593,3.561,2.664
			c-0.232,0.395-0.102,0.9,0.289,1.131c0.377,0.23,0.871,0.098,1.104-0.294c0.873-1.519,1.031-3.028,0.473-4.488
			C3.936-4.92-2.373-6.975-2.642-7.061c-0.323-0.102-0.674,0.012-0.881,0.284c-0.109,0.146-2.725,3.642-2.725,7.659
			C-6.249,4.379-3.82,5.949-2.535,6.289z"/>
	</g>
</g>
</svg>
