<?xml version="1.0" encoding="utf-8"?>
<!-- Generator: Adobe Illustrator 16.0.0, SVG Export Plug-In . SVG Version: 6.00 Build 0)  -->
<!DOCTYPE svg PUBLIC "-//W3C//DTD SVG 1.1//EN" "http://www.w3.org/Graphics/SVG/1.1/DTD/svg11.dtd">
<svg version="1.1" id="Layer_1" xmlns="http://www.w3.org/2000/svg" xmlns:xlink="http://www.w3.org/1999/xlink" x="0px" y="0px"
	 width="50px" height="50px" viewBox="0 0 50 50" enable-background="new 0 0 50 50" xml:space="preserve">
<title>콘돔</title>
<desc>Created with Sketch.</desc>
<g id="Page-1">
	<g id="콘돔">
		<g transform="translate(24.000000, 10.000000)">
			<path id="Shape" fill="none" stroke="#333333" stroke-miterlimit="10" d="M8.389,28.574H-6.524c-1.935,0-3.512,1.539-3.512,3.434
				s1.578,3.438,3.512,3.438H8.457c1.936,0,3.508-1.543,3.508-3.438S10.324,28.574,8.389,28.574z"/>
			<path id="Path_1_" fill="none" stroke="#333333" stroke-miterlimit="10" d="M-7.253,28.965V8.388
				c0-3.194,1.838-6.055,4.724-7.389V0.135c0-1.799,1.442-3.331,3.279-3.331c1.831,0,3.28,1.463,3.28,3.33v0.864
				c2.811,1.264,4.717,4.196,4.717,7.389v20.511"/>
		</g>
	</g>
</g>
</svg>
