<?xml version="1.0" encoding="utf-8"?>
<!-- Generator: Adobe Illustrator 16.0.0, SVG Export Plug-In . SVG Version: 6.00 Build 0)  -->
<!DOCTYPE svg PUBLIC "-//W3C//DTD SVG 1.1//EN" "http://www.w3.org/Graphics/SVG/1.1/DTD/svg11.dtd">
<svg version="1.1" id="Layer_1" xmlns="http://www.w3.org/2000/svg" xmlns:xlink="http://www.w3.org/1999/xlink" x="0px" y="0px"
	 width="50px" height="50px" viewBox="0 0 50 50" enable-background="new 0 0 50 50" xml:space="preserve">
<title>Group 13</title>
<desc>Created with Sketch.</desc>
<g id="Welcome">
	<g id="noun_1105_cc" transform="translate(26.000000, 12.000000)">
		<g id="Group">
			<g id="Group-6" transform="translate(0.000000, 29.545455)">
				<path id="Shape" fill="none" stroke="#333333"
					stroke-width="1" d="M-5.802-4.399l4.882,2.836l4.621-2.738
					c0,0-2.268-1.619-4.621-1.646C-3.263-5.965-5.802-4.399-5.802-4.399z"/>
				<path id="Shape_1_" fill="none" stroke="#333333" stroke-width="1" d="M10.992-9.549c-0.736-4.584-3.71-5.535-3.774-5.535
					h-8.273h-8.253c0,0-2.934,0.859-3.688,5.535c-0.339,2.112-0.499,3.028-0.504,3.553c2.906,0.005,2.887,1.58,4.191,3.885V8.449
					c0-4.543,0-10.561,0-10.561c1.302-2.309,5.342-3.887,8.253-3.887c2.921,0,6.968,1.563,8.274,3.887V8.455V-2.141
					c1.308-2.288,1.39-3.852,4.282-3.855C11.496-6.346,11.342-7.435,10.992-9.549z"/>
			</g>
			<g id="Group-11">
				<g id="Group-8" transform="translate(14.500000, 0.000000)">
					<path id="Shape_2_" fill="none" stroke="#333333" stroke-width="1" d="M-7.818,7.641c3.182-0.862,5.021-4.03,4.116-7.068
						c-0.055-0.18-0.219-0.51-0.219-0.51L-8.566-10L-3.92,0.079c-0.646-1.353-4.132-1.149-6.453-0.525
						c-3.096,1.327-3.938,2.353-4.942,3.608c0.041,0.183-0.019,0.417,0.571,1.331C-14.152,5.407-10.998,8.507-7.818,7.641z"/>
				</g>

					<g id="Group-8-Copy" transform="translate(7.500000, 10.500000) scale(-1, 1) translate(-7.500000, -10.500000) translate(0.500000, 0.000000)">
					<path id="Shape_3_" fill="none" stroke="#333333" stroke-width="1" d="M23.306,7.641c3.18-0.862,5.024-4.03,4.119-7.068
						c-0.055-0.18-0.212-0.51-0.212-0.51L22.557-10l4.654,10.079c-0.657-1.353-4.141-1.149-6.465-0.525
						c-3.09,1.327-3.931,2.353-4.934,3.608c0.029,0.183-0.026,0.417,0.565,1.331C16.974,5.407,20.127,8.507,23.306,7.641z"/>
				</g>
			</g>
		</g>
	</g>
</g>
</svg>
