<?xml version="1.0" encoding="utf-8"?>
<!-- Generator: Adobe Illustrator 16.0.0, SVG Export Plug-In . SVG Version: 6.00 Build 0)  -->
<!DOCTYPE svg PUBLIC "-//W3C//DTD SVG 1.1//EN" "http://www.w3.org/Graphics/SVG/1.1/DTD/svg11.dtd">
<svg version="1.1" id="Layer_1" xmlns="http://www.w3.org/2000/svg" xmlns:xlink="http://www.w3.org/1999/xlink" x="0px" y="0px"
	 width="50px" height="50px" viewBox="0 0 50 50" enable-background="new 0 0 50 50" xml:space="preserve">
<title>마사지오일</title>
<desc>Created with Sketch.</desc>
<g id="Page-1">
	<g id="마사지오일">
		<g transform="translate(27.000000, 9.000000)">
			<path id="Shape" fill="none" stroke="#333333" stroke-miterlimit="10" d="M-8.301,35.99c-1.474,0-2.699-1.029-2.699-2.259V15.299
				c0-2.736,1.472-5.343,4.003-7.124c0.574-0.343,0.903-0.958,0.903-1.646V4.462h8.18v2.067c0,0.619,0.327,1.234,0.901,1.716
				C5.52,10.021,7,12.564,7,15.366v18.431c0,1.165-1.232,2.194-2.707,2.194L-8.301,35.99L-8.301,35.99z"/>
			<path id="Shape_1_" fill="none" stroke="#333333" stroke-miterlimit="10" d="M1.852,4.343h-7.709
				c-1.205,0-2.143-0.761-2.143-1.727c0-0.966,0.938-1.725,2.143-1.725h7.709c1.203,0,2.147,0.759,2.147,1.725
				C3.999,3.582,3.055,4.343,1.852,4.343z"/>
			<path id="Shape_2_" fill="none" stroke="#333333" stroke-miterlimit="10" d="M-5.553-1.639v2.478h7.098v-2.478H-5.553z"/>
			<path id="Path" fill="#333333" d="M-1.281-1.79c0,0,0-0.001,0-0.003C-1.281-1.792-1.281-1.791-1.281-1.79z M4.986-6.001
				L4.48-5.94c0.01,0.091,0.016,0.131,0.045,0.305c0,0.019,0,0.038,0,0.06C4.541-5.453,4.568-5.272,4.6-4.991l0.498-0.57
				c-0.105,0-0.191-0.001-0.328-0.005C4.746-5.567,4.734-5.567,4.706-5.567C4.654-5.569,4.6-5.572,4.523-5.575
				C4.479-5.58,4.415-5.582,4.348-5.585C2.754-5.653,1.594-5.572-0.484-5.116c-0.57,0.125-0.809,0.311-0.861,0.875
				c-0.018,0.183,0.02,1.216,0.031,1.872h-1.229V-5.78c2.932-0.365,5.07-0.309,6.539,0.01c0.221,0.048,0.396,0.094,0.529,0.136
				C4.604-5.61,4.658-5.586,4.707-5.567C4.732-5.56,4.744-5.551,4.756-5.545L4.986-6.001z M-3.559-1.965
				C-3.559-1.964-3.559-1.964-3.559-1.965C-3.559-1.965-3.559-1.968-3.559-1.965z M-3.561-1.9c-0.025,0.293,0.213,0.55,0.506,0.55
				h2.268c0.303,0,0.531-0.254,0.516-0.548c-0.004-0.027-0.006-0.041-0.008-0.048c-0.014-0.456-0.064-1.862-0.057-2.162
				c0.023-0.005,0.039-0.009,0.072-0.013c1.979-0.438,3.053-0.514,4.568-0.447C4.759-4.548,4.882-4.544,5.1-4.544
				c0.305-0.001,0.545-0.269,0.51-0.569l-0.117-0.95C5.473-6.23,5.361-6.38,5.217-6.457C5.045-6.543,4.709-6.658,4.209-6.768
				c-1.66-0.357-4.068-0.406-7.33,0.037c-0.248,0.035-0.439,0.25-0.439,0.504v4.275C-3.561-1.942-3.561-1.932-3.561-1.9z"/>
			<path id="Line" fill="#333333" d="M-11.096,18.568v-1H7.182v1H-11.096z M-11.096,27.952v-1H7.182v1H-11.096z"/>
		</g>
	</g>
</g>
</svg>
