<?xml version="1.0" encoding="utf-8"?>
<!-- Generator: Adobe Illustrator 16.0.0, SVG Export Plug-In . SVG Version: 6.00 Build 0)  -->
<!DOCTYPE svg PUBLIC "-//W3C//DTD SVG 1.1//EN" "http://www.w3.org/Graphics/SVG/1.1/DTD/svg11.dtd">
<svg version="1.1" id="Layer_1" xmlns="http://www.w3.org/2000/svg" xmlns:xlink="http://www.w3.org/1999/xlink" x="0px" y="0px"
	 width="50px" height="50px" viewBox="7 7 50 50" enable-background="new 7 7 50 50" xml:space="preserve">
<g>
	<path fill="none" stroke="#241F20" stroke-miterlimit="10" d="M16.902,30.412c2.778,0,5.029-2.255,5.029-5.031
		c0-0.165-0.007-0.314-0.021-0.481c-0.011-0.098-0.022-0.22-0.053-0.349c-0.089-0.439-0.309-1.006-0.612-1.674
		c-0.929-2.023-2.703-4.862-4.342-7.06c-2.513,3.183-3.78,5.629-4.413,7.17c-0.013,0.021-0.013,0.044-0.023,0.064
		c-0.284,0.699-0.427,1.203-0.503,1.5c-0.012,0.031-0.012,0.056-0.021,0.077c-0.014,0.089-0.023,0.186-0.037,0.272
		c-0.009,0.167-0.02,0.317-0.02,0.482C11.886,28.157,14.139,30.412,16.902,30.412z"/>
	<path fill="none" stroke="#241F20" stroke-miterlimit="10" d="M53.348,28.415c-0.021-0.037-0.038-0.073-0.059-0.109
		c-0.005-0.016-0.014-0.027-0.023-0.043c-0.515-1.161-1.679-1.374-2.271-1.405c-3.545,0-12.869,0-14.758,0
		c-2.318,0-3.522,0.779-3.522,0.779l-12.386,9.317c-0.329,0.24-1.202,1.714-0.436,3.083c0.765,1.37,3.39,0.328,3.39,0.328
		s8.694-5.632,9.351-6.004c0.656-0.393,1.592-0.341,2.296,0.646c0.819,1.638-1.256,2.842-1.256,2.842l-7.239,4.727
		c-1.414,0.921-2.66,1.104-3.282,1.143l-8.206,0.041c-1.913,0-3.446,0.432-3.446,2.075c0,2.133,2.404,2.351,2.404,2.351h14.424
		c0.535-0.007,2.559-0.116,4.498-1.389l10.994-7.245c0.035-0.022,1.055-0.696,2.903-0.703c1-0.007,2.392-0.007,4.156,0.009
		c0,0,0.023,0.002,0.031,0.002c0.019,0,0.044,0.001,0.069,0.001c0.379,0.003,1.774-0.086,2.45-1.411
		C55.339,33.618,54.302,30.274,53.348,28.415z"/>
</g>
</svg>
