<?xml version="1.0" encoding="utf-8"?>
<!-- Generator: Adobe Illustrator 16.0.0, SVG Export Plug-In . SVG Version: 6.00 Build 0)  -->
<!DOCTYPE svg PUBLIC "-//W3C//DTD SVG 1.1//EN" "http://www.w3.org/Graphics/SVG/1.1/DTD/svg11.dtd">
<svg version="1.1" id="Layer_1" xmlns="http://www.w3.org/2000/svg" xmlns:xlink="http://www.w3.org/1999/xlink" x="0px" y="0px"
	 width="50px" height="50px" viewBox="7 7 50 50" enable-background="new 7 7 50 50" xml:space="preserve">
<title>이벤트의류</title>
<desc>Created with Sketch.</desc>
<g id="Page-1">
	<g id="이벤트의류">
		<g id="Shape" transform="translate(20.000000, 14.000000)">
			<path fill="none" stroke="#333333" stroke-width="1" d="M20.463,26.32c-0.537-0.547-1.131-0.993-1.772-1.438
				c0.689-4.493,5.877-12.053,5.929-12.105c0.049-0.101,0.099-0.25,0.049-0.341c-1.335-6.33-6.626-10.184-6.871-10.38
				c-0.146-0.1-0.393-0.1-0.548,0c-4,3.26-4.096,18.033-4.096,20.555c-1.181-0.192-2.369-0.294-3.606-0.192
				c-0.444,0.045-0.891,0.091-1.337,0.145C8.16,7.142,1.789-0.711-2.016-4.023c-0.542-0.495-1.287-0.595-1.976-0.346
				C-4.685-4.121-5.128-3.48-5.23-2.79c-1.727,15.811,5.14,24.561,7.907,27.427c-3.952,2.523-6.618,6.873-6.819,11.808
				c-0.049,0.845,0,1.736,0.15,2.574c0.098,0.843,0.84,1.481,1.729,1.481c0,0,0,0,0.05,0h0.099c0.494,0,0.939-0.246,1.285-0.597
				c0.295-0.39,0.446-0.833,0.395-1.331c-0.051-0.494-0.1-1.037-0.1-1.58c0-3.162,1.335-6.181,3.706-8.248
				c2.375-2.133,5.435-3.118,8.649-2.767c5.188,0.586,9.289,4.739,9.782,9.976c0.097,0.889,0.05,1.779-0.049,2.619
				c-0.046,0.498,0.097,0.985,0.401,1.331c0.342,0.4,0.833,0.597,1.325,0.597h0.102c0.84,0,1.581-0.639,1.683-1.481
				c0.098-0.647,0.146-1.337,0.146-2.026C25.065,32.937,23.383,29.087,20.463,26.32z"/>
			<path fill="none" stroke="#333333" stroke-width="1" d="M28.447,4.841c-1.773-1.411-5.511-3.646-10.578-3.209
				c-0.192,0-0.39,0.146-0.444,0.341c-0.038,0.194,0.055,0.39,0.2,0.534c0.053,0.05,5.953,3.893,7.477,12.059
				c0.102,0.437,0.446,0.777,0.887,0.827c0.047,0,0.099,0,0.146,0c0.392,0,0.737-0.241,0.93-0.58
				c0.939-2.045,2.116-4.963,2.411-7.348C29.624,6.496,29.231,5.473,28.447,4.841z"/>
		</g>
	</g>
</g>
</svg>
